<?xml version="1.0" encoding="UTF-8" standalone="no"?>
<svg width="1956px" height="4272px" viewBox="0 0 1956 4272" version="1.1" xmlns="http://www.w3.org/2000/svg" xmlns:xlink="http://www.w3.org/1999/xlink">
    <defs>
        <linearGradient x1="50%" y1="12.8641309%" x2="50%" y2="100%" id="linearGradient-1">
            <stop stop-color="#d2e0fc" offset="0%"/>
            <stop stop-color="#8ED2FF" offset="100%"/>
        </linearGradient>
        <linearGradient x1="50%" y1="0%" x2="50%" y2="100%" id="linearGradient-2">
            <stop stop-color="#d2e0fc" offset="0%"/>
            <stop stop-color="#0e1e40" offset="100%"/>
        </linearGradient>
        <linearGradient x1="50%" y1="2.0707111%" x2="50%" y2="100%" id="linearGradient-3">
            <stop stop-color="#405480" stop-opacity="0" offset="0%"/>
            <stop stop-color="#405480" stop-opacity="0.748273324" offset="36.1049107%"/>
            <stop stop-color="#405480" stop-opacity="0.898182745" offset="51.8734056%"/>
            <stop stop-color="#405480" stop-opacity="0.74" offset="67.3668686%"/>
            <stop stop-color="#405480" stop-opacity="0" offset="100%"/>
        </linearGradient>
        <linearGradient x1="50%" y1="25.32278043%" x2="50%" y2="70%" id="linearGradient-4">
            <stop stop-color="#b1efff" offset="40%" stop-opacity=".2"/>
            <stop stop-color="#68c2e8" offset="100%" stop-opacity=".2"/>
        </linearGradient>
        <linearGradient x1="50%" y1="25.602563883%" x2="50.6167978%" y2="98.9314767%" id="linearGradient-5">
            <stop stop-color="#b1efff" offset="0%" stop-opacity=".7"/>
            <stop stop-color="#b1efff" offset="25.4952966%" stop-opacity=".7"/>
            <stop stop-color="#68c2e8" offset="50%"/>
        </linearGradient>
        <linearGradient x1="89.3552016%" y1="-77.2035737%" x2="0%" y2="26.1388932%" id="linearGradient-6">
            <stop stop-color="#b1efff" offset="0%"/>
            <stop stop-color="#68c2e8" offset="100%" stop-opacity=".1"/>
        </linearGradient>
        <linearGradient x1="50%" y1="10.32278043%" x2="50%" y2="89.6987947%" id="linearGradient-7">
            <stop stop-color="#b1efff" offset="0%" stop-opacity=".2"/>
            <stop stop-color="#68c2e8" offset="100%" stop-opacity=".2"/>
        </linearGradient>
        <linearGradient x1="50%" y1="0%" x2="50%" y2="78.8523873%" id="linearGradient-8">
            <stop stop-color="#b1efff" offset="0%" stop-opacity=".5"/>
            <stop stop-color="#b1efff" offset="34.0003189%" stop-opacity=".5"/>
            <stop stop-color="#68c2e8" offset="59.53906%" stop-opacity=".5"/>
            <stop stop-color="#68c2e8" offset="100%" stop-opacity=".5"/>
        </linearGradient>
        <linearGradient x1="50%" y1="2.65066964%" x2="50%" y2="100%" id="linearGradient-9">
            <stop stop-color="#d1d6e0" stop-opacity="0" offset="0%"/>
            <stop stop-color="#3897f0" offset="100%"/>
        </linearGradient>
        <linearGradient x1="50%" y1="30.893096125%" x2="50%" y2="100%" id="linearGradient-10">
            <stop stop-color="#b1efff" offset="0%" stop-opacity=".7"/>
            <stop stop-color="#0e1e40" offset="30.9944994%" stop-opacity=".5"/>
            <stop stop-color="#0e1e40" offset="100%"/>
        </linearGradient>
        <linearGradient x1="60%" y1="0%" x2="60%" y2="60%" id="linearGradient-11">
            <stop stop-color="#b1efff" offset="50%" stop-opacity=".5"/>
            <stop stop-color="#b1efff" offset="15.6967474%" stop-opacity=".6"/>
            <stop stop-color="#68c2e8" offset="78.3242985%" stop-opacity=".5"/>
            <stop stop-color="#0e1e40" offset="100%" stop-opacity=".8"/>
        </linearGradient>
    </defs>
    <g id="Page-1" stroke="none" stroke-width="1" fill="none" fill-rule="evenodd">
        <g id="Graphics-Copy">
            <g id="tree" transform="translate(435.000000, 2118.000000)" fill="#34798B">
                <polygon id="Combined-Shape" points="193.353655 596.358273 200.246904 1405.08471 169.712679 1405.08471 174.288182 831.352387 141.984225 806.257542 143.995727 798.396729 174.288182 809.251848 177.334161 594.391326 106.386015 585.67999 0 472.087631 22.4524025 81.3522663 258.519123 0 441.508145 172.754968 384.099741 536.37129 241.095858 602.220278 193.353655 596.358273"/>
            </g>
            <rect id="Rectangle-35-Copy" fill="url(#linearGradient-1)" transform="translate(967.000000, 1576.183212) rotate(-180.000000) translate(-967.000000, -1576.183212) " x="-23" y="-0.721720852" width="1980" height="3153.80987"/>
            <rect id="Rectangle-35" fill="url(#linearGradient-2)" x="-23" y="2814.33105" width="1980" height="1472.15751"/>
            <rect id="Rectangle-80" fill-opacity="0.300000012" fill="url(#linearGradient-3)" x="-23" y="-50" width="1980" height="1872.57461"/>
            <polygon id="Combined-Shape" fill="url(#linearGradient-4)" points="1215.4586 3610.75609 1207.24609 3967.16277 1184.62829 3952.38383 1181.87783 3961.81128 1207.24609 3998.09766 1200.07311 4263.25538 1256 4263.25538 1234.27724 3610.51059 1415.69531 3542.9375 1372.25 3131.20312 1172.09375 3051 1078.90625 3157.26953 1084.80469 3221.44141 1050 3508.63672 1195.4586 3610.75609"/>
            <path d="M1388.21589,3175.77308 L1355.19356,3177.50371 L1211.50327,3067.63618 L1158.31029,2610.90643 L1410.00839,2468.86398 L1652.60524,2631.65385 L1660.64002,3064.09304 L1511.50356,3169.31185 L1419.203,3174.14911 L1419.21606,3188.58733 L1481.84676,3177.33403 L1482.51323,3186.60379 L1419.07315,3202.71397 L1431.49164,4264 L1370.73079,4264 L1377.22451,3750.87656 L1307.48328,3737.58628 L1310.59926,3731.11307 L1377.22452,3737.58624 L1388.21589,3175.77308 Z" id="Combined-Shape" fill="url(#linearGradient-5)"/>
            <polygon id="Path-33" fill="url(#linearGradient-6)" opacity="0.5" transform="translate(1231.994536, 2733.250440) rotate(114.000000) translate(-1231.994536, -2733.250440) " points="918.120756 2678.85541 1545.86831 2616.10216 1149.93511 2850.39872"/>
            <polygon id="Combined-Shape" fill="url(#linearGradient-7)" opacity="0.8" points="697.690857 4272.08471 667.156632 4272.08471 671.732135 3698.35239 639.428178 3673.25754 641.43968 3665.39673 671.732136 3676.25185 674.778115 3461.39133 603.829969 3452.67999 497.443953 3339.08763 519.896356 2948.35227 755.963077 2867 938.952099 3039.75497 881.543695 3403.37129 738.539812 3469.22028 690.797608 3463.35827"/>
            <path d="M796.859776,1602.80253 L780,4272 L853.194693,4272 L848.930304,3550.43006 L865.432617,3514.56104 L860.4375,3495.19164 L848.930305,3502.13978 L842.226589,2416.10579 L919.66357,2334.92965 L914.841727,2309.50169 L842.226588,2344.61555 L834.510315,1610.12106 L838.324473,1610.86245 L1011.3103,1518.46703 L1130.33713,981.566239 L946.776937,718.817826 L559.275527,903.875608 L582.141807,1409.17532 L686.925276,1581.43343 L796.859776,1602.80253 Z" id="Combined-Shape" fill="url(#linearGradient-8)"/>
            <polygon id="Path-68" fill="#405480" points="367 4286.18033 580.575333 4091 864.238593 4183.82978 931.952471 4143.40028 1144.17324 4242.07132 1339.52258 4180.24936 1566.62571 4286.53612"/>
            <polygon id="Path-69" fill="#68c2e8" points="580 4092 689.643893 4155.5071 736.283167 4219.0142 869.023874 4182.92931"/>
            <rect id="Rectangle-35-Copy-2" fill="url(#linearGradient-9)" transform="translate(967.000000, 718.139140) rotate(-180.000000) translate(-967.000000, -718.139140) " x="-23" y="-0.721720852" width="1980" height="1437.72172"/>
            <polygon id="Path-69-Copy" fill="#68c2e8" points="931.904349 4143.08108 894.131208 4212.7806 954.909663 4189.53161 1061.28421 4203.48485"/>
            <path d="M418.818695,2653.28131 L398.530558,4272 L531.999998,4272 L507.407669,2999.53512 L601.648437,2969.12402 L601.648435,2954.50937 L507.407666,2963.19545 L501.093746,2667.6807 L544.722511,2675.3164 L794.271547,2550.30004 L812.887907,2237.79446 L673.758194,1900 L394.825181,1911.01632 L180,2265.42941 L293.660346,2631.37668 L418.818695,2653.28131 Z" id="Combined-Shape" fill="url(#linearGradient-10)"/>
            <polygon id="Path-31" fill="#FFFF00" opacity="0.0133512127" points="396 1911.74609 814.566406 2238.50391 672.261719 1901"/>
            <polygon id="Path-69-Copy-2" fill="#68c2e8" points="1339.55235 4179.69274 1346.6858 4223.41891 1382.08966 4249.27051 1566.08082 4286.64927"/>
            <polygon id="Path-34" fill="#000000" opacity="0.03" points="861.636719 1409.07031 1010.89844 1518.71094 1130.00391 983.796875 997.976562 792 768 1159.28711"/>
            <path d="M1519.84636,2101.96708 L1532,4272.00004 L1441.09922,4272.00004 L1469.69073,2346.33887 C1469.69073,2346.33887 1398.84928,2318.55934 1371.31073,2308.00001 C1366.05594,2305.98512 1371.31073,2298.61621 1371.31073,2298.61621 L1471.00956,2320.62773 L1473.62882,2103.73736 L1327.68016,2109.32765 L1168.21871,1733.84806 L1252.40236,1303.63672 L1711.63672,1155.85547 L1893.59376,1703.1301 L1647.37508,2097.08233 L1519.84636,2101.96708 Z" id="Combined-Shape" fill="url(#linearGradient-11)"/>
            <polygon id="Path-32" fill="#000000" opacity="0.02" points="1330.70898 2108.9336 1526.64648 1930.13477 1742.02734 1946.93164 1647.87695 2097.57031"/>
            <polygon id="Path-51" fill="#b1efff" opacity="0.7" points="1169.57812 1735.60547 1713.24609 1156.80078 1253.57422 1303.36328"/>
            <circle r="25mm" cx="150mm" cy="100mm" fill="#e8e9eb"/>
            <rect id="Rectangle-111-Copy-30" fill-opacity="0" fill="#FFFF00" x="1131" y="749" width="3" height="3"/>
            <g id="Stars" transform="translate(111.000000, 8.000000)" fill="#FFFF00">
                <rect id="Rectangle-111" fill-opacity="0.109999999" x="1758" y="379" width="8" height="8"/>
                <rect id="Rectangle-111-Copy-8" fill-opacity="0.1" x="1477" y="120" width="8" height="8"/>
                <rect id="Rectangle-111-Copy-7" fill-opacity="0.189999998" x="157" y="70" width="8" height="8"/>
                <rect id="Rectangle-111-Copy-3" fill-opacity="0.180000007" x="805" y="240" width="8" height="8"/>
                <rect id="Rectangle-111-Copy-18" fill-opacity="0.1" x="476" y="608" width="8" height="8"/>
                <rect id="Rectangle-111-Copy-9" fill-opacity="0.1" x="931" y="519" width="8" height="8"/>
                <rect id="Rectangle-111-Copy-12" fill-opacity="0.1" x="663" y="5" width="8" height="8"/>
                <rect id="Rectangle-111-Copy-14" fill-opacity="0.1" x="1118" y="13" width="8" height="8"/>
                <rect id="Rectangle-111-Copy-13" fill-opacity="0.1" x="65" y="31" width="8" height="8"/>
                <rect id="Rectangle-111-Copy-11" fill-opacity="0.1" x="1257" y="430" width="8" height="8"/>
                <rect id="Rectangle-111-Copy-10" fill-opacity="0.1" x="127" y="408" width="8" height="8"/>
                <rect id="Rectangle-111-Copy" fill-opacity="0.1" x="587" y="301" width="5" height="5"/>
                <rect id="Rectangle-111-Copy-23" fill-opacity="0.1" x="1052" y="199" width="5" height="5"/>
                <rect id="Rectangle-111-Copy-15" fill-opacity="0.1" x="1333" y="204" width="5" height="5"/>
                <rect id="Rectangle-111-Copy-16" fill-opacity="0.1" x="1706" y="340" width="5" height="5"/>
                <rect id="Rectangle-111-Copy-17" fill-opacity="0.1" x="1627" y="642" width="5" height="5"/>
                <rect id="Rectangle-111-Copy-4" fill-opacity="0.1" x="277" y="227" width="5" height="5"/>
                <rect id="Rectangle-111-Copy-26" fill-opacity="0.1" x="1778" y="0" width="5" height="5"/>
                <rect id="Rectangle-111-Copy-25" fill-opacity="0.239999995" x="60" y="78" width="5" height="5"/>
                <rect id="Rectangle-111-Copy-19" fill-opacity="0.1" x="0" y="351" width="5" height="5"/>
                <rect id="Rectangle-111-Copy-2" fill-opacity="0.1" x="584" y="348" width="3" height="3"/>
                <rect id="Rectangle-111-Copy-20" fill-opacity="0.1" x="162" y="639" width="3" height="3"/>
                <rect id="Rectangle-111-Copy-21" fill-opacity="0.1" x="187" y="605" width="3" height="3"/>
                <rect id="Rectangle-111-Copy-22" fill-opacity="0.1" x="1119" y="160" width="3" height="3"/>
                <rect id="Rectangle-111-Copy-24" fill-opacity="0.370000005" x="1154" y="237" width="3" height="3"/>
                <rect id="Rectangle-111-Copy-5" fill-opacity="0.1" x="836" y="345" width="3" height="3"/>
                <rect id="Rectangle-111-Copy-28" fill-opacity="0.1" x="493" y="165" width="3" height="3"/>
                <rect id="Rectangle-111-Copy-29" fill-opacity="0.1" x="511" y="641" width="3" height="3"/>
                <rect id="Rectangle-111-Copy-32" fill-opacity="0.1" x="1429" y="578" width="3" height="3"/>
                <rect id="Rectangle-111-Copy-31" fill-opacity="0.1" x="1254" y="484" width="3" height="3"/>
                <rect id="Rectangle-111-Copy-27" fill-opacity="0.1" x="1429" y="39" width="3" height="3"/>
                <rect id="Rectangle-111-Copy-6" fill-opacity="0.1" x="902" y="126" width="3" height="3"/>
            </g>
            <polygon id="Path-30" fill="#000000" opacity="0.02" points="543.834961 2675.53027 793.575195 2550.61914 227 2417 293.953125 2631.86523"/>
        </g>
    </g>
</svg>
