<svg id="Capa_1" enable-background="new 0 0 512 512" height="512" viewBox="0 0 512 512" width="512" xmlns="http://www.w3.org/2000/svg"><g id="Questions"><g><path fill="#ffffff" d="m236.365 225h-30v-15c0-18.58 7.284-25.274 18.222-29.609 3.18-1.26 5.28-2.093 8.401-5.908 1.54-1.884 3.377-5.058 3.377-9.484 0-8.271-6.729-15-15-15s-15 6.729-15 15h-30c0-24.813 20.187-45 45-45s45 20.187 45 45c0 10.357-3.606 20.471-10.156 28.478-7.622 9.319-15.053 12.599-19.796 14.496-.029.552-.048 1.222-.048 2.026z"/></g><g><path fill="#ffffff" d="m206.365 240h30v30h-30z"/></g><g><path fill="#ffffff" d="m221.365 330c-74.439 0-135-60.561-135-135s60.561-135 135-135 135 60.561 135 135-60.561 135-135 135zm0-240c-57.897 0-105 47.103-105 105s47.103 105 105 105 105-47.103 105-105-47.103-105-105-105z"/></g><g><path fill="#ffffff" d="m296.365 512h-210v-176.568c-38.214-36.744-60-87.541-60-140.432 0-107.523 87.477-195 195-195 106.315 0 193.033 85.531 194.967 191.393l69.303 138.607h-69.271v120h-120v62zm-180-30h150v-62h120v-120h50.729l-50.729-101.459v-3.541c0-90.981-74.019-165-165-165s-165 74.019-165 165c0 46.639 20.052 91.371 55.015 122.727l4.985 4.471z"/></g></g></svg>
