<?xml version="1.0"?>
<svg xmlns="http://www.w3.org/2000/svg" id="Capa_1" enable-background="new 0 0 512 512" height="512px" viewBox="0 0 512 512" width="512px"><g><g><path d="m378.714 187.143v34.429c0 67.665-55.049 122.715-122.714 122.715s-122.714-55.05-122.714-122.715v-34.429h-30v34.429c0 66.916 43.263 123.912 103.285 144.501v115.927h-53.857v30h206.572v-30h-53.857v-115.928c60.022-20.588 103.285-77.585 103.285-144.501v-34.429h-30z" data-original="#000000" class="active-path" data-old_color="#000000" fill="#0E1E40"/><path d="m256 236.571h-82.487c7.094 39.103 41.37 68.857 82.487 68.857 46.239 0 83.857-37.618 83.857-83.857v-137.714c0-46.239-37.618-83.857-83.857-83.857-41.117 0-75.393 29.755-82.487 68.857h82.487v30h-83.857v38.856h83.857v30h-83.857v38.857h83.857z" data-original="#000000" class="active-path" data-old_color="#000000" fill="#0E1E40"/></g></g> </svg>
